<?xml version="1.0" encoding="UTF-8"?>
<svg version="1.1" xmlns="http://www.w3.org/2000/svg" width="512" height="512">
<path d="M0 0 C8.92244721 7.12989368 16.86751543 15.16574012 24.9130249 23.25309753 C26.44153882 24.78280587 27.97042514 26.31214218 29.49966431 27.84112549 C32.68125451 31.0242696 35.85948718 34.21071412 39.03509521 37.39982605 C43.11104657 41.49288905 47.19367355 45.57921463 51.27856636 49.66335201 C54.42544538 52.81050222 57.56971769 55.96024555 60.71310043 59.11088753 C62.21885007 60.61982216 63.72520863 62.12814941 65.23218155 63.63586235 C67.32640926 65.73224843 69.41731782 67.83188676 71.50726318 69.93254089 C72.13158737 70.5564119 72.75591156 71.1802829 73.39915466 71.82305908 C77.18182838 75.63423366 78.94897291 77.62623591 79.2802124 82.97575378 C79.3523999 83.79301941 79.4245874 84.61028503 79.4989624 85.45231628 C77.10921091 95.08924892 63.89531373 104.42020078 57.01068115 111.32341003 C55.946809 112.39152326 55.946809 112.39152326 54.86144447 113.48121452 C51.11140157 117.24617667 47.35854676 121.00830805 43.60321045 124.76799011 C39.74679574 128.62989322 35.89975343 132.5009927 32.05483532 136.3743372 C29.075157 139.37272367 26.08870957 142.36429917 23.10042763 145.35410881 C21.67991475 146.77762789 20.26187837 148.20362308 18.84648705 149.63223457 C11.61115893 156.93032692 4.61655104 163.96834341 -4.2197876 169.35075378 C-5.30653526 170.01449005 -5.30653526 170.01449005 -6.41523743 170.69163513 C-16.50687543 176.71668212 -26.80825744 180.66393567 -38.2197876 183.35075378 C-39.20849854 183.59567566 -40.19720947 183.84059753 -41.21588135 184.09294128 C-66.64220929 189.35853544 -93.56479841 183.50006172 -115.5010376 170.14372253 C-119.60335555 167.43831457 -123.43353184 164.47820104 -127.2197876 161.35075378 C-128.2510376 160.54637878 -129.2822876 159.74200378 -130.3447876 158.91325378 C-148.20795354 142.99173631 -160.92732645 118.01474563 -162.42486572 94.07194519 C-162.52296387 90.55792926 -162.54873664 87.05358173 -162.5322876 83.53825378 C-162.52737305 82.29865906 -162.5224585 81.05906433 -162.51739502 79.78190613 C-162.40760222 71.22932859 -161.8588071 63.53384249 -159.2197876 55.35075378 C-158.8794751 54.22540222 -158.5391626 53.10005066 -158.1885376 51.94059753 C-153.81933371 38.61157351 -147.43323701 26.92197469 -138.2197876 16.35075378 C-137.74154541 15.74102722 -137.26330322 15.13130066 -136.77056885 14.50309753 C-121.83255388 -4.2871276 -97.89859817 -14.22485922 -74.8526001 -18.23518372 C-49.0324213 -21.17812883 -21.15172861 -15.71520104 0 0 Z " fill="#37C86B" transform="translate(162.21978759765625,172.6492462158203)"/>
<path d="M0 0 C0.99 0.7425 1.98 1.485 3 2.25 C7.66001465 6.18713149 11.27993133 11.20306935 15 16 C15.91652344 17.15822266 15.91652344 17.15822266 16.8515625 18.33984375 C33.54335457 40.63367562 38.26168265 69.22801172 34.50390625 96.45703125 C33.84259784 99.72621124 33.02335241 102.82678223 32 106 C31.6596875 107.12535156 31.319375 108.25070312 30.96875 109.41015625 C26.59954611 122.73918027 20.21344942 134.42877909 11 145 C10.52175781 145.60972656 10.04351562 146.21945312 9.55078125 146.84765625 C-5.38723372 165.63788138 -29.32118942 175.57561301 -52.3671875 179.5859375 C-78.1873663 182.52888261 -106.06805899 177.06595483 -127.2197876 161.35075378 C-136.14223481 154.2208601 -144.08730303 146.18501366 -152.1328125 138.09765625 C-153.66132642 136.56794792 -155.19021274 135.0386116 -156.7194519 133.5096283 C-159.9010421 130.32648418 -163.07927477 127.14003966 -166.25488281 123.95092773 C-170.33083417 119.85786474 -174.41346115 115.77153915 -178.49835396 111.68740177 C-181.64523297 108.54025156 -184.78950529 105.39050823 -187.93288803 102.23986626 C-189.43863767 100.73093162 -190.94499623 99.22260438 -192.45196915 97.71489143 C-194.54619685 95.61850536 -196.63710542 93.51886703 -198.72705078 91.41821289 C-199.35137497 90.79434189 -199.97569916 90.17047089 -200.61894226 89.5276947 C-204.40161598 85.71652012 -206.1687605 83.72451788 -206.5 78.375 C-206.5721875 77.55773437 -206.644375 76.74046875 -206.71875 75.8984375 C-204.32899851 66.26150487 -191.11510132 56.93055301 -184.23046875 50.02734375 C-183.52122065 49.31526827 -182.81197254 48.60319279 -182.08123207 47.86953926 C-178.33118917 44.10457711 -174.57833436 40.34244573 -170.82299805 36.58276367 C-166.96658334 32.72086056 -163.11954103 28.84976109 -159.27462292 24.97641659 C-156.2949446 21.97803011 -153.30849717 18.98645461 -150.32021523 15.99664497 C-148.89970235 14.5731259 -147.48166597 13.1471307 -146.06627464 11.71851921 C-138.83094653 4.42042686 -131.83633864 -2.61758963 -123 -8 C-122.27550156 -8.44249084 -121.55100311 -8.88498169 -120.80455017 -9.34088135 C-110.71291217 -15.36592834 -100.41153016 -19.31318188 -89 -22 C-87.51693359 -22.36738281 -87.51693359 -22.36738281 -86.00390625 -22.7421875 C-55.37943924 -29.0842757 -23.7815801 -19.57921253 0 0 Z " fill="#43C0DC" transform="translate(477,178)"/>
<path d="M0 0 C0.81726563 -0.0721875 1.63453125 -0.144375 2.4765625 -0.21875 C12.11349513 2.17100149 21.44444699 15.38489868 28.34765625 22.26953125 C29.05973173 22.97877935 29.77180721 23.68802746 30.50546074 24.41876793 C34.27042289 28.16881083 38.03255427 31.92166564 41.79223633 35.67700195 C45.65413944 39.53341666 49.52523891 43.38045897 53.39858341 47.22537708 C56.39696989 50.2050554 59.38854539 53.19150283 62.37835503 56.17978477 C63.8018741 57.60029765 65.2278693 59.01833403 66.65648079 60.43372536 C73.95457314 67.66905347 80.99258963 74.66366136 86.375 83.5 C86.81749084 84.22449844 87.25998169 84.94899689 87.71588135 85.69544983 C93.74092834 95.78708783 97.68818188 106.08846984 100.375 117.5 C100.61992187 118.48871094 100.86484375 119.47742188 101.1171875 120.49609375 C106.38278166 145.92242169 100.52430793 172.84501081 87.16796875 194.78125 C84.46256079 198.88356795 81.50244726 202.71374424 78.375 206.5 C77.570625 207.53125 76.76625 208.5625 75.9375 209.625 C60.01598253 227.48816594 35.03899184 240.20753886 11.09619141 241.70507812 C7.58217548 241.80317628 4.07782795 241.82894905 0.5625 241.8125 C-0.67709473 241.80758545 -1.91668945 241.8026709 -3.19384766 241.79760742 C-11.74642519 241.68781462 -19.4419113 241.1390195 -27.625 238.5 C-28.75035156 238.1596875 -29.87570313 237.819375 -31.03515625 237.46875 C-44.36418027 233.09954611 -56.05377909 226.71344942 -66.625 217.5 C-67.53958984 216.78263672 -67.53958984 216.78263672 -68.47265625 216.05078125 C-87.26288138 201.11276628 -97.20061301 177.17881058 -101.2109375 154.1328125 C-104.32862792 126.77949093 -97.82121054 97.95156953 -80.625 76.0625 C-79.45975942 74.72964249 -78.29204751 73.39847224 -77.09326172 72.09570312 C-75.99226006 70.89913731 -74.90496455 69.68993571 -73.82470703 68.47460938 C-71.80983226 66.22336376 -69.75514707 64.01529846 -67.6875 61.8125 C-67.04361328 61.09199463 -66.39972656 60.37148926 -65.73632812 59.62915039 C-63.77743715 57.6053062 -62.04370557 55.94972535 -59.625 54.5 C-57.35766602 54.47021484 -57.35766602 54.47021484 -54.9453125 54.79296875 C-51.03608851 55.09379356 -49.76913692 54.59992615 -46.47143555 52.3137207 C-43.54168317 49.77712017 -40.8174313 47.05259141 -38.13452148 44.25830078 C-36.43537632 42.49779963 -34.69100597 40.7939966 -32.93554688 39.08984375 C-31.83548495 37.97958282 -30.73836942 36.86639313 -29.64453125 35.75 C-29.12389603 35.2444458 -28.6032608 34.7388916 -28.06684875 34.21801758 C-26.07553334 32.09234912 -24.64556806 30.38752166 -24.57643127 27.40423584 C-24.8493117 25.42407525 -25.23185714 23.45983121 -25.625 21.5 C-24.61328125 19.390625 -24.61328125 19.390625 -22.9375 17.75 C-21.98230469 16.78126953 -21.98230469 16.78126953 -21.0078125 15.79296875 C-20.22148437 15.03628906 -19.43515625 14.27960938 -18.625 13.5 C-17.59875585 12.45718171 -16.57551531 11.41140224 -15.5546875 10.36328125 C-5.74699146 0.35585086 -5.74699146 0.35585086 0 0 Z " fill="#F06544" transform="translate(255.625,270.5)"/>
<path d="M0 0 C2.93982643 2.28388139 4.53091666 3.91839191 5.67578125 7.49609375 C5.67578125 10.37109375 5.67578125 10.37109375 4.9609375 12.3046875 C4.41907562 14.4762075 4.41907562 14.4762075 6.046875 16.2734375 C7.06974609 17.28083984 7.06974609 17.28083984 8.11328125 18.30859375 C14.57951765 25.17049147 19.11337025 33.21951514 23.30078125 41.62109375 C24.36854598 43.7447063 24.36854598 43.7447063 25.67578125 45.37109375 C28.7285059 46.26940214 28.7285059 46.26940214 31.67578125 46.37109375 C34.64838569 49.42463544 35.416694 52.52126059 36.30078125 56.62109375 C36.54054688 57.69875 36.7803125 58.77640625 37.02734375 59.88671875 C42.11422246 87.22103083 37.06935435 113.60435853 22.67578125 137.37109375 C15.17880712 148.27313836 6.04108123 157.41653413 -3.32421875 166.69921875 C-4.85271812 168.22465316 -6.38062097 169.7506855 -7.90795898 171.27728271 C-11.08366075 174.44841822 -14.26416201 177.61462472 -17.44873047 180.77685547 C-21.53568654 184.83528954 -25.61369031 188.90257553 -29.68862915 192.97307205 C-32.83128157 196.11157939 -35.97675426 199.24724615 -39.12329102 202.38185883 C-40.62929658 203.88216367 -42.13483243 205.38294016 -43.63989258 206.88419342 C-45.73127722 208.96873487 -47.82600833 211.04984903 -49.921875 213.12988281 C-50.54417496 213.75106491 -51.16647491 214.37224701 -51.80763245 215.01225281 C-55.61565089 218.78204781 -57.61080601 220.54054188 -62.94921875 220.87109375 C-63.76648438 220.94328125 -64.58375 221.01546875 -65.42578125 221.08984375 C-75.06271388 218.70009226 -84.39366574 205.48619507 -91.296875 198.6015625 C-92.00895048 197.8923144 -92.72102596 197.18306629 -93.45467949 196.45232582 C-97.21964164 192.70228292 -100.98177302 188.94942811 -104.74145508 185.1940918 C-108.60335819 181.33767709 -112.47445766 177.49063478 -116.34780216 173.64571667 C-119.34618864 170.66603835 -122.33776414 167.67959092 -125.32757378 164.69130898 C-126.75109285 163.2707961 -128.17708805 161.85275972 -129.60569954 160.43736839 C-136.90379189 153.20204028 -143.94180838 146.20743239 -149.32421875 137.37109375 C-149.76670959 136.64659531 -150.20920044 135.92209686 -150.6651001 135.17564392 C-156.69014709 125.08400592 -160.63740063 114.78262391 -163.32421875 103.37109375 C-163.69160156 101.88802734 -163.69160156 101.88802734 -164.06640625 100.375 C-169.33200041 74.94867206 -163.47352668 48.02608294 -150.1171875 26.08984375 C-147.41125192 21.98672575 -144.44590942 18.16280583 -141.32421875 14.37109375 C-140.58171875 13.38109375 -139.83921875 12.39109375 -139.07421875 11.37109375 C-135.13708726 6.7110791 -130.1211494 3.09116242 -125.32421875 -0.62890625 C-124.16599609 -1.54542969 -124.16599609 -1.54542969 -122.984375 -2.48046875 C-85.99897296 -30.17210309 -36.35101801 -25.47625968 0 0 Z " fill="#FEE09F" transform="translate(319.32421875,20.62890625)"/>
<path d="M0 0 C8.92244721 7.12989368 16.86751543 15.16574012 24.9130249 23.25309753 C26.44153882 24.78280587 27.97042514 26.31214218 29.49966431 27.84112549 C32.68125451 31.0242696 35.85948718 34.21071412 39.03509521 37.39982605 C43.11104657 41.49288905 47.19367355 45.57921463 51.27856636 49.66335201 C54.42544538 52.81050222 57.56971769 55.96024555 60.71310043 59.11088753 C62.21885007 60.61982216 63.72520863 62.12814941 65.23218155 63.63586235 C67.32640926 65.73224843 69.41731782 67.83188676 71.50726318 69.93254089 C72.13158737 70.5564119 72.75591156 71.1802829 73.39915466 71.82305908 C77.18182838 75.63423366 78.94897291 77.62623591 79.2802124 82.97575378 C79.3523999 83.79301941 79.4245874 84.61028503 79.4989624 85.45231628 C77.10921091 95.08924892 63.89531373 104.42020078 57.01068115 111.32341003 C55.946809 112.39152326 55.946809 112.39152326 54.86144447 113.48121452 C51.11140157 117.24617667 47.35854676 121.00830805 43.60321045 124.76799011 C39.74679574 128.62989322 35.89975343 132.5009927 32.05483532 136.3743372 C29.075157 139.37272367 26.08870957 142.36429917 23.10042763 145.35410881 C21.67991475 146.77762789 20.26187837 148.20362308 18.84648705 149.63223457 C11.61115893 156.93032692 4.61655104 163.96834341 -4.2197876 169.35075378 C-5.30653526 170.01449005 -5.30653526 170.01449005 -6.41523743 170.69163513 C-16.50687543 176.71668212 -26.80825744 180.66393567 -38.2197876 183.35075378 C-39.20849854 183.59567566 -40.19720947 183.84059753 -41.21588135 184.09294128 C-66.64220929 189.35853544 -93.56479841 183.50006172 -115.5010376 170.14372253 C-119.60335555 167.43831457 -123.43353184 164.47820104 -127.2197876 161.35075378 C-128.2510376 160.54637878 -129.2822876 159.74200378 -130.3447876 158.91325378 C-148.20795354 142.99173631 -160.92732645 118.01474563 -162.42486572 94.07194519 C-162.52296387 90.55792926 -162.54873664 87.05358173 -162.5322876 83.53825378 C-162.52737305 82.29865906 -162.5224585 81.05906433 -162.51739502 79.78190613 C-162.40760222 71.22932859 -161.8588071 63.53384249 -159.2197876 55.35075378 C-158.8794751 54.22540222 -158.5391626 53.10005066 -158.1885376 51.94059753 C-153.81933371 38.61157351 -147.43323701 26.92197469 -138.2197876 16.35075378 C-137.74154541 15.74102722 -137.26330322 15.13130066 -136.77056885 14.50309753 C-121.83255388 -4.2871276 -97.89859817 -14.22485922 -74.8526001 -18.23518372 C-49.0324213 -21.17812883 -21.15172861 -15.71520104 0 0 Z M-126.2901001 26.05387878 C-141.88426998 43.08234609 -148.21711957 65.59750543 -147.5713501 88.34294128 C-146.36940549 110.78212298 -135.87312841 130.67514648 -120.2197876 146.35075378 C-119.48888916 147.09325378 -118.75799072 147.83575378 -118.00494385 148.60075378 C-100.43924157 165.34868594 -78.13294469 169.92687309 -54.6572876 169.53044128 C-26.00546006 168.7410542 -5.7657408 152.24533176 13.5380249 132.78825378 C14.93576793 131.38677299 16.33395882 129.98573874 17.73257446 128.58512878 C21.38326992 124.92685699 25.0279148 121.26261619 28.67126465 117.59703064 C32.40180937 113.84589713 36.13813886 110.10053499 39.8739624 106.35466003 C47.18166761 99.02561098 54.48298364 91.69023284 61.7802124 84.35075378 C60.13205108 80.15073521 57.04312039 77.3109264 53.91619873 74.18034363 C53.31577255 73.57159393 52.71534637 72.96284424 52.09672546 72.33564758 C50.10735822 70.32216929 48.11040135 68.31644411 46.11224365 66.31169128 C44.71606802 64.90654097 43.31996628 63.50131723 41.92393494 62.09602356 C38.98954037 59.14512698 36.05076761 56.1986655 33.10955811 53.25456238 C29.37488647 49.51454584 25.65657436 45.75872026 21.94225025 41.99851036 C19.0585616 39.08478105 16.16338863 36.18266332 13.26514244 33.28342056 C11.8917662 31.90588524 10.52243773 30.5243002 9.15757179 29.13833237 C-1.81180955 18.01314177 -13.48269116 7.63865385 -28.4697876 2.35075378 C-29.51779541 1.9427655 -29.51779541 1.9427655 -30.5869751 1.52653503 C-40.25146335 -2.07568332 -49.9055367 -2.99537949 -60.1572876 -2.89924622 C-61.21343262 -2.89175354 -62.26957764 -2.88426086 -63.35772705 -2.87654114 C-88.52832818 -2.5283274 -109.01811684 8.01879846 -126.2901001 26.05387878 Z " fill="#000201" transform="translate(162.21978759765625,172.6492462158203)"/>
<path d="M0 0 C0.99 0.7425 1.98 1.485 3 2.25 C7.66001465 6.18713149 11.27993133 11.20306935 15 16 C15.91652344 17.15822266 15.91652344 17.15822266 16.8515625 18.33984375 C33.54335457 40.63367562 38.26168265 69.22801172 34.50390625 96.45703125 C33.84259784 99.72621124 33.02335241 102.82678223 32 106 C31.6596875 107.12535156 31.319375 108.25070312 30.96875 109.41015625 C26.59954611 122.73918027 20.21344942 134.42877909 11 145 C10.52175781 145.60972656 10.04351562 146.21945312 9.55078125 146.84765625 C-5.38723372 165.63788138 -29.32118942 175.57561301 -52.3671875 179.5859375 C-78.1873663 182.52888261 -106.06805899 177.06595483 -127.2197876 161.35075378 C-136.14223481 154.2208601 -144.08730303 146.18501366 -152.1328125 138.09765625 C-153.66132642 136.56794792 -155.19021274 135.0386116 -156.7194519 133.5096283 C-159.9010421 130.32648418 -163.07927477 127.14003966 -166.25488281 123.95092773 C-170.33083417 119.85786474 -174.41346115 115.77153915 -178.49835396 111.68740177 C-181.64523297 108.54025156 -184.78950529 105.39050823 -187.93288803 102.23986626 C-189.43863767 100.73093162 -190.94499623 99.22260438 -192.45196915 97.71489143 C-194.54619685 95.61850536 -196.63710542 93.51886703 -198.72705078 91.41821289 C-199.35137497 90.79434189 -199.97569916 90.17047089 -200.61894226 89.5276947 C-204.40161598 85.71652012 -206.1687605 83.72451788 -206.5 78.375 C-206.5721875 77.55773437 -206.644375 76.74046875 -206.71875 75.8984375 C-204.32899851 66.26150487 -191.11510132 56.93055301 -184.23046875 50.02734375 C-183.52122065 49.31526827 -182.81197254 48.60319279 -182.08123207 47.86953926 C-178.33118917 44.10457711 -174.57833436 40.34244573 -170.82299805 36.58276367 C-166.96658334 32.72086056 -163.11954103 28.84976109 -159.27462292 24.97641659 C-156.2949446 21.97803011 -153.30849717 18.98645461 -150.32021523 15.99664497 C-148.89970235 14.5731259 -147.48166597 13.1471307 -146.06627464 11.71851921 C-138.83094653 4.42042686 -131.83633864 -2.61758963 -123 -8 C-122.27550156 -8.44249084 -121.55100311 -8.88498169 -120.80455017 -9.34088135 C-110.71291217 -15.36592834 -100.41153016 -19.31318188 -89 -22 C-87.51693359 -22.36738281 -87.51693359 -22.36738281 -86.00390625 -22.7421875 C-55.37943924 -29.0842757 -23.7815801 -19.57921253 0 0 Z M-96 -4 C-97.05703125 -3.63777344 -98.1140625 -3.27554688 -99.203125 -2.90234375 C-117.41295577 3.98470763 -130.45682655 18.30208682 -143.8828125 31.78515625 C-145.1910944 33.09530771 -146.49960058 34.40523524 -147.80831909 35.71495056 C-151.2200451 39.13045944 -154.62875499 42.54896252 -158.0368042 45.96813965 C-161.52789601 49.46953749 -165.02188908 52.96803769 -168.515625 56.46679688 C-175.34656152 63.30839593 -182.17430906 70.15316783 -189 77 C-187.35183868 81.20001857 -184.26290799 84.03982738 -181.13598633 87.17041016 C-180.53556015 87.77915985 -179.93513397 88.38790955 -179.31651306 89.0151062 C-177.32714581 91.0285845 -175.33018894 93.03430968 -173.33203125 95.0390625 C-171.93585562 96.44421282 -170.53975387 97.84943655 -169.14372253 99.25473022 C-166.20932797 102.2056268 -163.27055521 105.15208828 -160.3293457 108.09619141 C-156.59467406 111.83620794 -152.87636196 115.59203353 -149.16203785 119.35224342 C-146.2783492 122.26597273 -143.38317623 125.16809046 -140.48493004 128.06733322 C-139.1115538 129.44486855 -137.74222533 130.82645358 -136.37735939 132.21242142 C-123.5105774 145.26196337 -110.54585849 155.18973211 -93 161 C-92.03707031 161.33902344 -91.07414062 161.67804688 -90.08203125 162.02734375 C-82.42264761 164.27037513 -74.80932597 164.27355443 -66.875 164.3125 C-65.77824951 164.31813965 -64.68149902 164.3237793 -63.55151367 164.32958984 C-41.27717987 164.13195307 -21.92658526 155.51038529 -6 140 C-5.36320313 139.41347656 -4.72640625 138.82695312 -4.0703125 138.22265625 C6.79363115 127.96226503 14.24687105 113.40461462 18 99 C18.20367187 98.24589844 18.40734375 97.49179687 18.6171875 96.71484375 C23.50483852 75.05518477 19.15991557 51.77016392 8.10546875 32.73828125 C-3.37929872 15.07432534 -18.33842841 3.45983157 -38 -4 C-38.7528125 -4.33257812 -39.505625 -4.66515625 -40.28125 -5.0078125 C-57.2485673 -11.19990818 -79.14155398 -10.03500709 -96 -4 Z " fill="#000102" transform="translate(477,178)"/>
<path d="M0 0 C2.9310203 2.27704011 4.53397776 3.95402467 5.73828125 7.49609375 C5.67249842 10.52210395 5.4841137 11.95998382 3.67578125 14.37109375 C1.14885788 16.33647859 -0.34579569 16.37109375 -3.57421875 16.37109375 C-7.04511901 15.44552035 -8.12800639 14.94230774 -10.76171875 12.80859375 C-27.84169069 -0.98165597 -50.94268953 -6.62303471 -72.48828125 -4.40625 C-95.82641588 -1.4367024 -115.92601721 9.52833321 -131.32421875 27.37109375 C-139.20463415 38.46716027 -144.59727617 50.04961074 -147.32421875 63.37109375 C-147.50984375 64.24121094 -147.69546875 65.11132812 -147.88671875 66.0078125 C-151.11073428 90.79243189 -146.11983247 114.12283134 -131.32421875 134.37109375 C-124.32819664 142.73842109 -116.47888312 150.34735991 -108.7578125 158.03515625 C-107.47008124 159.32101785 -106.18257398 160.6071038 -104.89527893 161.8934021 C-101.53895412 165.24594485 -98.17963527 168.59547124 -94.81964111 171.94433594 C-91.37856548 175.37510375 -87.94038906 178.80877445 -84.50195312 182.2421875 C-77.77884428 188.95463524 -71.05256254 195.66389365 -64.32421875 202.37109375 C-60.15726988 200.72848909 -57.33846874 197.68805421 -54.22973633 194.58300781 C-53.3288327 193.69458946 -53.3288327 193.69458946 -52.409729 192.78822327 C-50.42391238 190.82651209 -48.44584506 188.85721734 -46.46875 186.88671875 C-45.08362461 185.51056742 -43.6984255 184.13449028 -42.31315613 182.75848389 C-39.40514287 179.86697039 -36.50156299 176.97108126 -33.6003418 174.07275391 C-29.91178925 170.3895506 -26.20742342 166.72271759 -22.49869251 163.05984879 C-19.6270517 160.2182203 -16.76699548 157.36513655 -13.90982628 154.50896454 C-12.55099968 153.15430141 -11.1881164 151.80369316 -9.82087135 150.45752716 C5.63214244 135.22369267 15.17183496 119.55049491 20.67578125 98.37109375 C20.85375244 97.78094482 21.03172363 97.1907959 21.21508789 96.58276367 C22.32851387 91.23749291 21.86061358 85.55780875 21.86328125 80.12109375 C21.87552734 78.82300781 21.88777344 77.52492188 21.90039062 76.1875 C21.91057353 69.52787823 21.62133756 63.74110051 19.67578125 57.37109375 C19.06214489 51.23473011 19.06214489 51.23473011 21.36328125 47.99609375 C23.98774542 46.15187568 25.46508072 45.44940352 28.67578125 45.37109375 C31.1953125 46.41796875 31.1953125 46.41796875 33.67578125 48.37109375 C34.68247138 50.86709311 35.35437701 52.9694183 35.92578125 55.55859375 C36.2403125 56.83089844 36.55484375 58.10320312 36.87890625 59.4140625 C42.6626805 86.5693017 36.94786082 113.80496921 22.67578125 137.37109375 C15.17880712 148.27313836 6.04108123 157.41653413 -3.32421875 166.69921875 C-4.85271812 168.22465316 -6.38062097 169.7506855 -7.90795898 171.27728271 C-11.08366075 174.44841822 -14.26416201 177.61462472 -17.44873047 180.77685547 C-21.53568654 184.83528954 -25.61369031 188.90257553 -29.68862915 192.97307205 C-32.83128157 196.11157939 -35.97675426 199.24724615 -39.12329102 202.38185883 C-40.62929658 203.88216367 -42.13483243 205.38294016 -43.63989258 206.88419342 C-45.73127722 208.96873487 -47.82600833 211.04984903 -49.921875 213.12988281 C-50.54417496 213.75106491 -51.16647491 214.37224701 -51.80763245 215.01225281 C-55.61565089 218.78204781 -57.61080601 220.54054188 -62.94921875 220.87109375 C-63.76648438 220.94328125 -64.58375 221.01546875 -65.42578125 221.08984375 C-75.06271388 218.70009226 -84.39366574 205.48619507 -91.296875 198.6015625 C-92.00895048 197.8923144 -92.72102596 197.18306629 -93.45467949 196.45232582 C-97.21964164 192.70228292 -100.98177302 188.94942811 -104.74145508 185.1940918 C-108.60335819 181.33767709 -112.47445766 177.49063478 -116.34780216 173.64571667 C-119.34618864 170.66603835 -122.33776414 167.67959092 -125.32757378 164.69130898 C-126.75109285 163.2707961 -128.17708805 161.85275972 -129.60569954 160.43736839 C-136.90379189 153.20204028 -143.94180838 146.20743239 -149.32421875 137.37109375 C-149.76670959 136.64659531 -150.20920044 135.92209686 -150.6651001 135.17564392 C-156.69014709 125.08400592 -160.63740063 114.78262391 -163.32421875 103.37109375 C-163.69160156 101.88802734 -163.69160156 101.88802734 -164.06640625 100.375 C-169.33200041 74.94867206 -163.47352668 48.02608294 -150.1171875 26.08984375 C-147.41125192 21.98672575 -144.44590942 18.16280583 -141.32421875 14.37109375 C-140.58171875 13.38109375 -139.83921875 12.39109375 -139.07421875 11.37109375 C-135.13708726 6.7110791 -130.1211494 3.09116242 -125.32421875 -0.62890625 C-124.16599609 -1.54542969 -124.16599609 -1.54542969 -122.984375 -2.48046875 C-85.99897296 -30.17210309 -36.35101801 -25.47625968 0 0 Z " fill="#020201" transform="translate(319.32421875,20.62890625)"/>
<path d="M0 0 C0.81726563 -0.0721875 1.63453125 -0.144375 2.4765625 -0.21875 C12.11349513 2.17100149 21.44444699 15.38489868 28.34765625 22.26953125 C29.05973173 22.97877935 29.77180721 23.68802746 30.50546074 24.41876793 C34.27042289 28.16881083 38.03255427 31.92166564 41.79223633 35.67700195 C45.65413944 39.53341666 49.52523891 43.38045897 53.39858341 47.22537708 C56.39696989 50.2050554 59.38854539 53.19150283 62.37835503 56.17978477 C63.8018741 57.60029765 65.2278693 59.01833403 66.65648079 60.43372536 C73.95457314 67.66905347 80.99258963 74.66366136 86.375 83.5 C86.81749084 84.22449844 87.25998169 84.94899689 87.71588135 85.69544983 C93.74092834 95.78708783 97.68818188 106.08846984 100.375 117.5 C100.61992187 118.48871094 100.86484375 119.47742188 101.1171875 120.49609375 C106.38278166 145.92242169 100.52430793 172.84501081 87.16796875 194.78125 C84.46256079 198.88356795 81.50244726 202.71374424 78.375 206.5 C77.570625 207.53125 76.76625 208.5625 75.9375 209.625 C60.01598253 227.48816594 35.03899184 240.20753886 11.09619141 241.70507812 C7.58217548 241.80317628 4.07782795 241.82894905 0.5625 241.8125 C-0.67709473 241.80758545 -1.91668945 241.8026709 -3.19384766 241.79760742 C-11.74642519 241.68781462 -19.4419113 241.1390195 -27.625 238.5 C-28.75035156 238.1596875 -29.87570313 237.819375 -31.03515625 237.46875 C-44.36418027 233.09954611 -56.05377909 226.71344942 -66.625 217.5 C-67.53958984 216.78263672 -67.53958984 216.78263672 -68.47265625 216.05078125 C-87.26288138 201.11276628 -97.20061301 177.17881058 -101.2109375 154.1328125 C-104.32862792 126.77949093 -97.82121054 97.95156953 -80.625 76.0625 C-78.98370955 74.17530192 -77.3256232 72.3317853 -75.625 70.5 C-75.01495117 69.83162109 -74.40490234 69.16324219 -73.77636719 68.47460938 C-71.7087924 66.22936013 -69.61038525 64.01751376 -67.5 61.8125 C-66.49646484 60.73174194 -66.49646484 60.73174194 -65.47265625 59.62915039 C-60.56265619 54.63138529 -60.56265619 54.63138529 -55.75 53.95703125 C-52.625 54.5 -52.625 54.5 -50.75 55.875 C-48.45371847 59.1918511 -48.22906772 61.47138901 -48.625 65.5 C-50.3125 67.9921875 -50.3125 67.9921875 -52.625 70.375 C-53.45128906 71.24511719 -54.27757812 72.11523438 -55.12890625 73.01171875 C-56.61579134 74.49395005 -58.11838911 75.96106689 -59.65234375 77.39453125 C-74.89401477 91.70113043 -84.3549781 112.62461884 -85.0234375 133.5078125 C-85.03126719 135.88020828 -85.02338515 138.25270656 -85 140.625 C-85.01160156 141.80964844 -85.02320313 142.99429688 -85.03515625 144.21484375 C-85.01013319 151.78014951 -84.03125844 158.33305179 -81.625 165.5 C-81.06039062 167.23056641 -81.06039062 167.23056641 -80.484375 168.99609375 C-75.84257351 181.30340544 -69.7800074 191.06456895 -60.625 200.5 C-59.81482422 201.42039062 -59.81482422 201.42039062 -58.98828125 202.359375 C-46.67809295 215.8788765 -26.18265606 224.44375178 -8.20849609 225.6640625 C15.57969189 226.73499949 38.39284748 221.16184728 56.5625 205.0625 C58.17255053 203.54789708 59.7771934 202.02751392 61.375 200.5 C62.00277344 199.94699219 62.63054687 199.39398438 63.27734375 198.82421875 C75.23325675 187.89852047 84.55025292 167.93825829 85.55200195 151.6159668 C86.02160286 130.7078092 86.02160286 130.7078092 81.375 110.5 C81.01277344 109.44296875 80.65054688 108.3859375 80.27734375 107.296875 C73.42585254 89.18106773 59.22382711 76.19335735 45.80859375 62.8359375 C44.52086249 61.5500759 43.23335523 60.26398995 41.94606018 58.97769165 C38.58973537 55.6251489 35.23041652 52.27562251 31.87042236 48.92675781 C28.42934673 45.49599 24.99117031 42.0623193 21.55273438 38.62890625 C14.82962553 31.91645851 8.10334379 25.2072001 1.375 18.5 C-2.20276592 20.17259969 -4.4420867 22.13845247 -7.1875 25 C-13.24224209 31.28958032 -13.24224209 31.28958032 -17.5 31.9375 C-20.625 31.5 -20.625 31.5 -23.5625 29.4375 C-25.625 26.5 -25.625 26.5 -25.8125 23.40234375 C-24.77597739 17.63976261 -19.74734072 13.96396049 -15.6875 10.125 C-14.85025391 9.30644531 -14.01300781 8.48789062 -13.15039062 7.64453125 C-5.6306705 0.34864833 -5.6306705 0.34864833 0 0 Z " fill="#020000" transform="translate(255.625,270.5)"/>
<path d="M0 0 C3.70564212 2.20913281 4.19131961 1.97948129 8.1875 1.1875 C11.39795051 0.69209009 12.67003422 0.54096033 15.38671875 2.3984375 C22.79493448 10.46160354 28.96338142 20.87326508 33.25 30.9375 C32.25 33.9375 32.25 33.9375 30.671875 35.21484375 C28.93773555 36.95985641 28.93773555 36.95985641 29.140625 40.00390625 C29.25921875 41.15761719 29.3778125 42.31132813 29.5 43.5 C29.60828125 44.65628906 29.7165625 45.81257813 29.828125 47.00390625 C30.08214184 49.86456991 30.08214184 49.86456991 31.25 51.9375 C31.33342159 53.38598582 31.35732861 54.83820869 31.34765625 56.2890625 C31.34443359 57.13984375 31.34121094 57.990625 31.33789062 58.8671875 C31.32951172 59.75664063 31.32113281 60.64609375 31.3125 61.5625 C31.30798828 62.4596875 31.30347656 63.356875 31.29882812 64.28125 C31.28702591 66.50006648 31.27056155 68.71875018 31.25 70.9375 C29.22139858 68.40174823 27.19305655 65.86589254 25.171875 63.32421875 C9.30102102 43.59983007 -11.32341923 29.63921236 -36.75 25.9375 C-66.72465106 24.10159377 -91.51944091 30.16386703 -114.61572266 50.12060547 C-124.35100951 58.8627696 -130.63548746 68.81883755 -136.15625 80.6015625 C-137.75 83.9375 -137.75 83.9375 -139.75 86.9375 C-144.0506401 62.24350199 -139.84944007 37.77647243 -125.75 16.9375 C-122.91773753 13.42730237 -119.88925651 10.17291391 -116.75 6.9375 C-116.20988281 6.32390625 -115.66976562 5.7103125 -115.11328125 5.078125 C-103.69469287 -7.46218868 -86.09132212 -15.11930489 -69.75 -18.0625 C-68.491875 -18.289375 -67.23375 -18.51625 -65.9375 -18.75 C-42.44086182 -21.13443686 -18.34964297 -15.39830179 0 0 Z " fill="#EECB85" transform="translate(310.75,34.0625)"/>
<path d="M0 0 C-2.53575177 2.02860142 -5.07160746 4.05694345 -7.61328125 6.078125 C-16.8650709 13.52240148 -24.67664629 20.8854014 -31 31 C-31.66128906 32.05574219 -32.32257813 33.11148438 -33.00390625 34.19921875 C-45.69589104 55.55221877 -48.48114046 81.12827869 -43.10546875 105.23046875 C-36.36253122 128.22317093 -22.25114581 150.24280237 -0.91503906 162.16503906 C2.5695209 164.0045011 6.09633335 165.73460057 9.6640625 167.40625 C13 169 13 169 16 171 C-9.04553433 174.66664257 -32.75275501 171.3756732 -54 157 C-57.50987303 154.16799945 -60.77048193 151.145123 -64 148 C-64.95519531 147.12021484 -64.95519531 147.12021484 -65.9296875 146.22265625 C-79.20090504 133.68872858 -85.24160162 117.39774734 -89 100 C-89.1750708 99.35587158 -89.3501416 98.71174316 -89.53051758 98.0480957 C-93.85263525 79.19305402 -87.52440586 56.95438947 -78.10546875 40.73828125 C-65.17764134 20.85485097 -46.220532 6.60901364 -23 1 C-15.40223235 -0.41653295 -7.70043829 -0.09023951 0 0 Z " fill="#2AA954" transform="translate(105,170)"/>
<path d="M0 0 C0.33 0 0.66 0 1 0 C2.23075733 6.57863222 2.2221451 13.01276963 2.25 19.6875 C2.2809375 21.5118457 2.2809375 21.5118457 2.3125 23.37304688 C2.34562435 31.08687958 1.48142127 37.69772693 -1 45 C-1.56460938 46.73056641 -1.56460938 46.73056641 -2.140625 48.49609375 C-6.78173144 60.80156259 -12.84248779 70.57079894 -22 80 C-22.62519531 80.69867188 -23.25039063 81.39734375 -23.89453125 82.1171875 C-37.26223731 96.58245258 -59.37504126 105.45138342 -78.97265625 106.3359375 C-104.04644045 106.77989399 -125.94449122 99.47627897 -144.48657227 82.03271484 C-157.30883013 69.51391194 -169.3889188 50.40503203 -170.07763672 31.91577148 C-170.09824358 29.50552304 -170.08722975 27.09769959 -170.0625 24.6875 C-170.05798828 23.85154297 -170.05347656 23.01558594 -170.04882812 22.15429688 C-170.03710548 20.10283351 -170.01917203 18.05140727 -170 16 C-167.97139858 18.53575177 -165.94305655 21.07160746 -163.921875 23.61328125 C-147.94811914 43.46555697 -126.82311268 57.92729789 -101 61 C-74.14494898 62.28513849 -50.46557158 58.08424259 -29 41 C-28.12085938 40.30261719 -27.24171875 39.60523438 -26.3359375 38.88671875 C-14.26124966 28.66248617 -5.01319582 15.03958745 0 0 Z " fill="#E95735" transform="translate(340,391)"/>
<path d="M0 0 C1.21623047 -0.020625 2.43246094 -0.04125 3.68554688 -0.0625 C11.39937958 -0.09562435 18.01022693 0.76857873 25.3125 3.25 C26.46621094 3.62640625 27.61992187 4.0028125 28.80859375 4.390625 C41.11426886 9.03180924 50.88292769 15.09258852 60.3125 24.25 C61.34310547 25.17039063 61.34310547 25.17039063 62.39453125 26.109375 C77.40704741 39.96708222 85.6563576 61.01793572 86.59375 81.1484375 C87.21578983 103.94067058 80.52189897 126.6120804 64.875 143.625 C63.05168228 145.53542384 61.19146413 147.3926954 59.3125 149.25 C58.21808594 150.35988281 58.21808594 150.35988281 57.1015625 151.4921875 C43.03984065 164.92662064 23.17989286 172.54210989 3.875 172.3125 C2.77768555 172.30573242 2.77768555 172.30573242 1.65820312 172.29882812 C-0.12373419 172.28718148 -1.90562863 172.26925191 -3.6875 172.25 C-1.15174823 170.22139858 1.38410746 168.19305655 3.92578125 166.171875 C23.79838913 150.18175925 38.20501615 129.08292127 41.3125 103.25 C42.84059992 72.68496367 36.21054159 47.62708363 15.5390625 24.61328125 C7.22466984 15.72366323 -2.40118246 9.97451968 -13.3515625 4.84375 C-16.6875 3.25 -16.6875 3.25 -19.6875 1.25 C-13.10886778 0.01924267 -6.67473037 0.0278549 0 0 Z " fill="#36AFC3" transform="translate(410.6875,169.75)"/>
</svg>
